# xmcd
#
# Track frame offsets:
#	150
#	24715
#	46346
#	68463
#	81330
#	93453
#	106557
#	122163
#	133203
#	141627
#	162546
#	176672
#	192442
#	199197
#	229900
#	244795
#	264543
#	283428
#	302834
#	317916
#
# Disc length: 4434 seconds
# Revision: 0
# Processed by: cddbd v1.5.2PL0 Copyright (c) Steve Scherf et al.
# Submitted via: dBpowerAMP V12.0
#
DISCID=34115014
DTITLE=Various Artist - Experience Gospel
DYEAR=2008
DGENRE=Gospel
TTITLE0=Rev. James Cleveland and The Voice Of Tabernacle - Lord Do It
TTITLE1=Rev. James Cleveland and The Voice Of Tabernacle - Step On Over
TTITLE2=Albertina Walker - Where He Leads Me
TTITLE3=Five Blind Boys Of Alabama - Something's Got A Hold Of Me
TTITLE4=Shirley Caesar - It Is Well
TTITLE5=James Cleveland and The Gospel All Stars - Meetin' Tonight
TTITLE6=James Cleveland and The Gospel All Stars - God Can Do Anything But Fail
TTITLE7=The Mighty Clouds Of Joy - Old Time Religion
TTITLE8=The Swan Silvertones - Breathe On Me
TTITLE9=The Thompson Community Singers - Praise God
TTITLE10=Rev. James Cleveland - Whiter Than Snow
TTITLE11=Rev. James Cleveland - Just When I Need Him Most
TTITLE12=Staple Singers - Get Right Church
TTITLE13=Richard Roquemore with The Gospel Singers Ensemble - The Love Of God
TTITLE14=Rev. Charles Taylor and The Taylor Singers - Try Jesus
TTITLE15=Rev. James Cleveland and The Voice Of Tabernacle - It's Gonna Be Too Late
TTITLE16=Rev. James Cleveland and The Voice Of Tabernacle - Child Of The King
TTITLE17=Rev. James Cleveland and The Voice Of Tabernacle - Oh, To Be Kept By Jesus
TTITLE18=The Harold Smith Majestics - Soon I Will Be Done
TTITLE19=Rev. James Cleveland and The Voice Of Tabernacle - I Walk With God
EXTD=
EXTT0=
EXTT1=
EXTT2=
EXTT3=
EXTT4=
EXTT5=
EXTT6=
EXTT7=
EXTT8=
EXTT9=
EXTT10=
EXTT11=
EXTT12=
EXTT13=
EXTT14=
EXTT15=
EXTT16=
EXTT17=
EXTT18=
EXTT19=
PLAYORDER=
